<svg width="842" height="186" viewBox="0 0 842 186" fill="none" xmlns="http://www.w3.org/2000/svg">
<g clip-path="url(#clip0_797_9640)">
<path d="M642.884 63.2816C642.884 30.8728 622.594 14.7861 579.303 14.7861H521.158V29.2809C521.237 29.3034 521.315 29.3146 521.382 29.337C521.909 29.4603 522.537 29.0904 523.12 29.0455C525.384 28.8886 527.649 28.698 529.924 28.6756C531.292 28.6644 532.682 29.1688 534.027 29.0455C536.74 28.7989 539.419 28.2832 542.12 27.8797C542.255 27.8573 542.423 27.7227 542.524 27.7564C545.203 28.911 546.817 26.3663 549.037 25.9067C549.619 25.7834 550.191 25.5367 550.774 25.4695C552.467 25.3013 554.171 25.1892 555.874 25.0659C557.242 24.965 557.354 25.0659 557.253 26.4672C558.666 26.4672 560.1 26.3327 561.49 26.512C562.376 26.6353 563.217 27.1958 564.035 27.633C564.17 27.7003 564.214 28.3057 564.091 28.429C563.396 29.0904 562.645 29.6845 561.905 30.3011C561.849 30.3459 561.759 30.3459 561.715 30.3908C559.461 32.7001 556.323 32.7001 553.498 33.2606C550.965 33.7538 548.285 33.5408 545.674 33.6417C545.147 33.6641 544.62 33.7314 544.082 33.7426C543.32 33.7426 543.073 34.2134 542.905 34.8636C542.535 36.377 542.098 37.8792 541.705 39.3814C540.921 42.4193 539.038 44.7735 536.863 46.881C536.347 47.3855 535.394 47.576 534.621 47.6433C530.137 47.9796 525.653 48.3159 521.169 48.5625V182.267H556.547V118.929H579.303L615.42 182.267H655.494L612.203 107.304C630.755 98.392 642.884 81.8233 642.884 63.2591V63.2816ZM579.056 89.5023H556.547V44.9641H579.056C596.128 44.9641 607.506 50.1544 607.506 66.2411C607.506 82.3277 596.868 89.5023 579.056 89.5023Z" fill="white"/>
<path d="M698.36 56.3535H664.215V182.289H698.36V56.3535Z" fill="white"/>
<path d="M777.175 53.6299C738.58 53.6299 712.114 80.1084 712.114 119.445C712.114 158.782 737.594 186 775.449 186C813.304 186 842 158.782 842 120.678C842 79.8506 816.767 53.6299 777.186 53.6299H777.175ZM777.175 159.275C759.116 159.275 747.738 144.186 747.738 119.198C747.738 94.2109 759.363 80.1084 777.175 80.1084C794.987 80.1084 806.611 95.444 806.611 120.432C806.611 143.939 794.987 159.275 777.175 159.275Z" fill="white"/>
<path d="M348.014 156.012C327.478 174.565 297.795 184.217 269.591 184.217C226.546 184.217 188.198 161.707 188.198 114.198C188.198 73.3707 216.155 46.4102 253.763 46.4102C284.937 46.4102 306.46 64.9631 306.46 89.4574C306.46 118.895 275.039 133.502 240.155 133.502C235.211 133.502 230.257 133.256 225.313 132.516C233.967 148.603 252.53 156.024 272.82 156.024C293.109 156.024 316.605 148.356 332.69 134.5L348.025 156.024L348.014 156.012ZM220.359 109.243C224.809 109.983 229.27 110.23 233.967 110.23C254.75 110.23 275.039 104.289 275.039 90.6793C275.039 81.0273 264.401 73.8528 252.284 73.8528C237.442 73.8528 221.11 84.4913 220.37 109.232L220.359 109.243Z" fill="white"/>
<path d="M472.273 176.842C451.344 187.088 428.174 184.207 399.971 184.207C356.926 184.207 318.578 161.697 318.578 114.188C318.578 73.36 346.534 46.3994 384.143 46.3994C415.317 46.3994 436.839 64.9523 436.839 89.4467C436.839 118.885 405.419 133.492 370.534 133.492C365.591 133.492 360.636 133.245 355.693 132.505C364.347 148.592 382.91 156.013 403.199 156.013C423.489 156.013 452.096 158.872 459.079 144.287L472.284 176.853L472.273 176.842ZM350.738 109.244C355.188 109.984 359.65 110.23 364.347 110.23C385.129 110.23 405.419 104.289 405.419 90.6798C405.419 81.0278 394.781 73.8532 382.663 73.8532C367.822 73.8532 351.489 84.4917 350.749 109.233L350.738 109.244Z" fill="white"/>
<path d="M170.207 177.57H128.395V134.03L131.366 82.0702H130.379L97.4789 137.74H72.246L39.5924 83.3145H38.606L41.8231 132.55V177.581H0V10.0781H44.5359L85.8545 83.8078L127.162 10.0781H170.207V177.581V177.57Z" fill="white"/>
<path d="M501.407 25.8395C496.587 24.1131 491.71 23.0593 486.621 22.7455C486.352 22.7342 485.915 22.2634 485.881 21.9719C485.747 20.8061 485.736 19.6402 485.702 18.4631C485.601 14.2817 485.612 10.0891 485.366 5.9077C485.298 4.67458 484.783 3.31814 484.065 2.2868C482.496 0.0111243 478.999 -0.583017 475.916 0.538005C473.584 1.37877 472.665 3.29572 472.34 5.43687C471.567 10.5151 470.973 15.627 470.378 20.7276C470.188 22.3755 470.3 22.3867 468.686 22.2634C468.439 22.241 468.193 22.2634 467.946 22.2858C466.253 22.4316 464.561 22.4988 462.879 22.7342C459.763 23.1602 456.658 23.6759 453.542 24.1692C452.32 24.3597 451.109 24.6176 449.898 24.8418C447.926 25.2117 445.841 25.2902 444.002 25.9964C441.76 26.8484 439.507 27.0726 437.187 27.1847C435.696 27.252 434.205 27.3641 432.725 27.465C428.611 27.7452 424.497 27.9246 420.406 27.1623C420.047 27.095 419.565 27.0838 419.285 27.2632C418.299 27.9134 417.491 27.4874 416.774 26.882C415.16 25.5144 413.355 24.7969 411.225 24.8642C409.701 24.9202 408.176 24.8306 406.652 24.8418C406.338 24.8418 406.024 25.0211 405.71 25.1108C405.856 25.3686 405.99 25.6377 406.147 25.8955C406.226 26.0301 406.349 26.1534 406.528 26.3888C405.026 26.3888 403.659 26.3664 402.302 26.3888C401.417 26.4112 400.408 26.1646 399.948 27.3304C399.904 27.4537 399.578 27.5098 399.388 27.5322C398.67 27.6331 398.648 28.1824 398.973 28.5299C399.59 29.2025 400.341 29.7406 401.047 30.3348C401.249 30.5141 401.45 30.6935 401.663 30.8504C401.966 31.0746 402.269 31.3997 402.616 31.4558C407.01 32.2293 411.371 33.3615 415.9 32.7338C416.617 32.6329 417.379 32.8122 418.119 32.8234C419.307 32.8347 419.902 33.5073 420.395 34.5386C422.368 38.5743 424.968 42.2064 427.838 45.6591C428.589 46.5672 429.531 47.1053 430.663 47.1613C432.355 47.2398 434.07 47.2622 435.763 47.1501C439.552 46.8923 443.307 46.1524 447.029 47.9348C449.663 49.2016 452.533 49.9863 455.324 50.8943C456.243 51.197 456.523 51.6566 456.501 52.5759C456.266 60.0307 456.064 67.4742 455.862 74.929C455.84 75.9155 455.862 76.8908 455.862 77.8549C457.667 78.2136 457.599 78.2248 457.868 80.0745C457.992 80.9153 458.451 81.7 458.743 82.5184C458.922 83.0228 459.247 83.5385 459.236 84.0429C459.158 87.0249 458.945 90.0068 458.911 92.9775C458.9 94.1209 459.236 95.2644 459.46 96.3966C459.718 97.6746 460.301 98.9413 460.279 100.208C460.021 113.268 459.707 126.339 459.303 139.399C459.158 144.219 458.732 149.04 458.451 153.849C458.407 154.701 458.138 155.217 457.185 155.351C456.243 155.486 455.335 155.822 454.405 156.046C452.925 156.412 452.155 157.343 452.096 158.838C452.017 160.844 452.028 160.889 449.988 161.259C449.091 161.416 448.856 161.808 448.867 162.683C448.901 169.185 448.912 175.675 448.867 182.177C448.867 183.242 449.226 183.489 450.212 183.466C453.508 183.422 456.815 183.444 460.122 183.444C472.766 183.444 485.422 183.444 498.066 183.444L497.315 153.412C497.158 147.896 496.912 142.392 496.71 136.877C496.53 132.09 496.351 127.292 496.194 122.505C496.194 122.169 496.329 121.552 496.497 121.519C498.403 121.16 498.369 119.759 498.335 118.324C498.246 114.21 498.111 110.084 498.1 105.97C498.1 104.939 498.302 103.829 498.739 102.91C499.322 101.699 499.523 100.5 499.49 99.2104C499.378 94.6702 499.322 90.1189 499.154 85.5787C498.761 74.7945 498.346 64.0103 497.898 53.2261C497.853 52.1835 498.033 51.6118 499.187 51.3539C500.981 50.9504 502.774 50.4347 504.478 49.7733C506.473 48.9998 508.458 48.4393 510.632 48.3496C511.529 48.3048 512.426 48.2599 513.334 48.2151V28.9111C509.343 27.9582 505.274 27.1959 501.429 25.8171L501.407 25.8395Z" fill="white"/>
<path d="M684.908 11.3555H677.667C670.238 11.3555 664.215 17.3783 664.215 24.8077V32.0495C664.215 39.479 670.238 45.5018 677.667 45.5018H684.908C692.337 45.5018 698.36 39.479 698.36 32.0495V24.8077C698.36 17.3783 692.337 11.3555 684.908 11.3555Z" fill="white"/>
</g>
<defs>
<clipPath id="clip0_797_9640">
<rect width="842" height="186" fill="white"/>
</clipPath>
</defs>
</svg>
